<svg width="140" height="40" viewBox="0 0 140 40" fill="none" xmlns="http://www.w3.org/2000/svg">
<mask id="mask0_3161_2224" style="mask-type:luminance" maskUnits="userSpaceOnUse" x="0" y="0" width="140" height="40">
<path fill-rule="evenodd" clip-rule="evenodd" d="M0 0H140V40H0V0Z" fill="white"/>
</mask>
<g mask="url(#mask0_3161_2224)">
<path fill-rule="evenodd" clip-rule="evenodd" d="M22.9351 35.4022L22.9361 35.7024H30.8022V35.4022L34.5328 35.4026L39.0884 40.0002H0.565918L5.12356 35.4026L22.9351 35.4022ZM39.6548 0.571706V39.4295L35.0972 34.8325V5.16698L39.6548 0.571706ZM0 0.571706L4.55764 5.16698V34.8325L0 39.4295V0.571706ZM31.9833 36.4962H21.7539V37.0919H31.9833V36.4962ZM120.047 30.2784C120.696 30.2784 121.218 30.427 121.612 30.7221C121.978 30.9979 122.173 31.3535 122.201 31.7872C122.204 31.8446 122.157 31.8936 122.1 31.8936H120.759C120.707 31.8936 120.667 31.8509 120.662 31.7985C120.63 31.464 120.424 31.2967 120.043 31.2967C119.883 31.2967 119.746 31.3425 119.637 31.4319C119.528 31.5231 119.473 31.6362 119.473 31.7701C119.473 31.908 119.54 32.0185 119.673 32.1057C119.808 32.1901 120.021 32.2619 120.315 32.3163C120.606 32.3724 120.863 32.4372 121.085 32.5139C121.825 32.7713 122.195 33.2318 122.195 33.8961C122.195 34.3488 121.996 34.7181 121.597 35.0016C121.197 35.2877 120.682 35.4305 120.047 35.4305C119.625 35.4305 119.248 35.3538 118.917 35.2002C118.587 35.0473 118.329 34.839 118.145 34.5749C117.982 34.3448 117.891 34.1034 117.871 33.8524C117.866 33.795 117.915 33.7453 117.972 33.7453H119.209C119.261 33.7453 119.3 33.7863 119.307 33.8374C119.329 34.019 119.403 34.1569 119.528 34.2474C119.673 34.3525 119.861 34.4049 120.089 34.4049C120.298 34.4049 120.455 34.3632 120.559 34.2774C120.664 34.1913 120.717 34.0794 120.717 33.9419C120.717 33.8104 120.647 33.7038 120.512 33.6261C120.374 33.545 120.114 33.4631 119.733 33.3763C119.35 33.2919 119.035 33.1787 118.785 33.0408C118.538 32.9002 118.348 32.7313 118.218 32.532C118.086 32.3333 118.021 32.1057 118.021 31.8479C118.021 31.3918 118.208 31.016 118.582 30.7208C118.954 30.4256 119.443 30.2784 120.047 30.2784ZM115.381 30.2784C116.021 30.2784 116.528 30.4577 116.904 30.8155C117.258 31.1535 117.448 31.6032 117.469 32.1651C117.471 32.2218 117.423 32.2705 117.368 32.2705H116.125C116.072 32.2705 116.031 32.2272 116.027 32.1737C116.013 31.9641 115.954 31.7988 115.844 31.6776C115.719 31.5414 115.553 31.4723 115.343 31.4723C114.946 31.4723 114.714 31.727 114.647 32.2392C114.626 32.4007 114.616 32.6244 114.616 32.9088C114.616 33.4083 114.676 33.7542 114.794 33.9469C114.911 34.1405 115.1 34.2366 115.357 34.2366C115.573 34.2366 115.74 34.1769 115.859 34.0587C115.958 33.9602 116.014 33.8277 116.028 33.6624C116.032 33.609 116.073 33.5656 116.125 33.5656H117.367C117.423 33.5656 117.471 33.6147 117.468 33.6715C117.444 34.1688 117.25 34.5809 116.889 34.9064C116.502 35.255 116.003 35.4305 115.394 35.4305C114.679 35.4305 114.113 35.2029 113.701 34.7518C113.289 34.2977 113.081 33.6701 113.081 32.8675V32.8024C113.081 32.3019 113.173 31.8586 113.357 31.4746C113.541 31.09 113.805 30.7959 114.15 30.5879C114.498 30.3812 114.906 30.2784 115.381 30.2784ZM109.276 29.1345C109.331 29.1345 109.376 29.1789 109.376 29.2343V30.3694H110.086C110.142 30.3694 110.186 30.4145 110.186 30.4699V31.3437C110.186 31.3988 110.142 31.4438 110.086 31.4438H109.376V33.7164C109.376 33.904 109.407 34.0339 109.476 34.1067C109.541 34.1808 109.673 34.2172 109.871 34.2172C110.024 34.2172 110.151 34.2082 110.254 34.1898V35.2965C109.977 35.3864 109.688 35.4304 109.389 35.4304C108.86 35.4304 108.472 35.3042 108.219 35.0536C107.967 34.8025 107.841 34.4216 107.841 33.9103V31.4438H107.313C107.258 31.4438 107.213 31.3988 107.213 31.3437V30.4699C107.213 30.4145 107.258 30.3694 107.313 30.3694H107.841V29.2343C107.841 29.1789 107.885 29.1345 107.941 29.1345H109.276ZM59.6715 30.2774C60.4102 30.2774 60.9901 30.5078 61.4151 30.9695C61.8401 31.4299 62.0526 32.0562 62.0526 32.8495V32.9046C62.0526 33.6795 61.8401 34.2932 61.4131 34.7482C60.9861 35.2032 60.4102 35.4296 59.6804 35.4296C58.9794 35.4296 58.4174 35.2176 57.9924 34.794C57.5674 34.3699 57.338 33.7954 57.3043 33.0695L57.3003 32.8081C57.3003 32.3126 57.3956 31.8706 57.5863 31.4833C57.7789 31.0957 58.0529 30.7979 58.4104 30.5909C58.7689 30.383 59.1889 30.2774 59.6715 30.2774ZM75.3946 30.2774C76.1323 30.2774 76.7132 30.5078 77.1392 30.9695C77.5632 31.4299 77.7757 32.0562 77.7757 32.8495V32.9046C77.7757 33.6795 77.5622 34.2932 77.1362 34.7482C76.7102 35.2032 76.1323 35.4296 75.4035 35.4296C74.7025 35.4296 74.1405 35.2176 73.7165 34.794C73.2915 34.3699 73.0612 33.7954 73.0264 33.0695L73.0244 32.8081C73.0244 32.3126 73.1197 31.8706 73.3104 31.4833C73.501 31.0957 73.7771 30.7979 74.1345 30.5909C74.491 30.383 74.911 30.2774 75.3946 30.2774ZM94.1368 30.2774C94.8755 30.2774 95.4564 30.5078 95.8814 30.9695C96.3064 31.4299 96.5179 32.0562 96.5179 32.8495V32.9046C96.5179 33.6795 96.3054 34.2932 95.8784 34.7482C95.4534 35.2032 94.8755 35.4296 94.1467 35.4296C93.4457 35.4296 92.8837 35.2176 92.4587 34.794C92.0327 34.3699 91.8034 33.7954 91.7696 33.0695L91.7656 32.8081C91.7656 32.3126 91.8609 31.8706 92.0526 31.4833C92.2442 31.0957 92.5183 30.7979 92.8767 30.5909C93.2342 30.383 93.6542 30.2774 94.1368 30.2774ZM104.586 30.2774C105.326 30.2774 105.906 30.5078 106.331 30.9695C106.755 31.4299 106.969 32.0562 106.969 32.8495V32.9046C106.969 33.6795 106.754 34.2932 106.329 34.7482C105.902 35.2032 105.326 35.4296 104.596 35.4296C103.895 35.4296 103.332 35.2176 102.908 34.794C102.483 34.3699 102.254 33.7954 102.22 33.0695L102.216 32.8081C102.216 32.3126 102.312 31.8706 102.502 31.4833C102.695 31.0957 102.969 30.7979 103.326 30.5909C103.685 30.383 104.105 30.2774 104.586 30.2774ZM98.616 28.2845C98.6706 28.2845 98.7153 28.329 98.7153 28.3844V30.7694C99.0002 30.4416 99.3696 30.2777 99.8214 30.2777C100.435 30.2777 100.908 30.5 101.242 30.9437C101.575 31.3884 101.742 32.0111 101.742 32.8174V32.8952C101.742 33.7095 101.575 34.3365 101.242 34.7745C100.908 35.2102 100.439 35.4298 99.8303 35.4298C99.3299 35.4298 98.9268 35.2295 98.6199 34.8276L98.5564 35.3377H97.1812V28.3844C97.1812 28.329 97.2258 28.2845 97.2804 28.2845H98.616ZM112.302 30.3703C112.356 30.3703 112.401 30.4151 112.401 30.4705V35.2377C112.401 35.2928 112.356 35.3379 112.302 35.3379H110.961C110.906 35.3379 110.862 35.2928 110.862 35.2377V30.4705C110.862 30.4151 110.906 30.3703 110.961 30.3703H112.302ZM67.6634 30.3703C67.719 30.3703 67.7627 30.4151 67.7627 30.4705V35.2377C67.7627 35.2928 67.719 35.3379 67.6634 35.3379H66.3249C66.2693 35.3379 66.2246 35.2928 66.2246 35.2377V30.4705C66.2246 30.4151 66.2693 30.3703 66.3249 30.3703H67.6634ZM52.4979 28.6523C52.5525 28.6523 52.5972 28.6969 52.5972 28.7524V31.3061H54.9505V28.7524C54.9505 28.6969 54.9952 28.6523 55.0498 28.6523H56.4399C56.4945 28.6523 56.5392 28.6969 56.5392 28.7524V35.2373C56.5392 35.2924 56.4945 35.3375 56.4399 35.3375H55.0498C54.9952 35.3375 54.9505 35.2924 54.9505 35.2373V32.5467H52.5972V35.2373C52.5972 35.2924 52.5525 35.3375 52.4979 35.3375H51.0978C51.0432 35.3375 50.9985 35.2924 50.9985 35.2373V28.7524C50.9985 28.6969 51.0432 28.6523 51.0978 28.6523H52.4979ZM65.2826 30.2789C65.4474 30.2789 65.5904 30.2959 65.7106 30.3333L65.6828 31.7705L65.1773 31.7342C64.6958 31.7342 64.386 31.8874 64.2499 32.1932V35.237C64.2499 35.2924 64.2052 35.3375 64.1506 35.3375H62.8151C62.7595 35.3375 62.7158 35.2924 62.7158 35.237V30.37H64.1526L64.2043 31.0083C64.4624 30.5209 64.8219 30.2789 65.2826 30.2789ZM81.3178 30.2784C81.8302 30.2784 82.2134 30.432 82.4666 30.7415C82.7208 31.0496 82.8519 31.5163 82.8608 32.1367V35.2369C82.8608 35.292 82.8162 35.3371 82.7616 35.3371H81.4221C81.3675 35.3371 81.3228 35.292 81.3228 35.2369V32.2018C81.3228 31.9507 81.2731 31.7661 81.1718 31.648C81.0716 31.5308 80.8898 31.472 80.6257 31.472C80.3249 31.472 80.1024 31.5905 79.9565 31.8298V35.2369C79.9565 35.292 79.9118 35.3371 79.8572 35.3371H78.5217C78.467 35.3371 78.4224 35.292 78.4224 35.2369V30.3695H79.8611L79.9118 30.9522C80.2504 30.5034 80.72 30.2784 81.3178 30.2784ZM88.71 28.6533C89.4975 28.6533 90.1111 28.8292 90.554 29.1801C90.9978 29.5323 91.2182 30.0278 91.2182 30.6714C91.2182 31.1359 91.1249 31.5208 90.9382 31.8263C90.7515 32.1332 90.4606 32.3802 90.0624 32.5702L91.4446 35.2697V35.3372H89.7348L88.5651 32.9735H87.7002V35.2371C87.7002 35.2925 87.6555 35.3372 87.6009 35.3372H86.2009C86.1462 35.3372 86.1016 35.2925 86.1016 35.2371V28.7534C86.1016 28.6983 86.1462 28.6533 86.2009 28.6533H88.71ZM72.4884 30.3703C72.544 30.3703 72.5887 30.4151 72.5887 30.4705V31.2049L70.3943 34.1436H72.5391C72.5937 34.1436 72.6384 34.1887 72.6384 34.2438V35.2373C72.6384 35.2928 72.5937 35.3375 72.5391 35.3375H68.5544C68.4998 35.3375 68.4551 35.2928 68.4551 35.2373V34.4755L70.6406 31.5639H68.5504V30.4705C68.5504 30.4151 68.5951 30.3703 68.6497 30.3703H72.4884ZM34.2984 5.40406V34.5957L30.8022 34.5953V31.2584L30.7943 31.1853C30.7665 31.0684 30.6751 30.9755 30.559 30.9479L30.4865 30.9399H23.2518L23.1794 30.9479C23.0622 30.9755 22.9708 31.0684 22.944 31.1853L22.9361 31.2584L22.9351 34.5953L5.35889 34.5957V5.40406H34.2984ZM104.586 31.4717C104.11 31.4717 103.837 31.8021 103.767 32.4647L103.754 32.6235L103.75 32.9045L103.754 33.0941C103.772 33.458 103.841 33.7307 103.962 33.9135C104.105 34.1282 104.316 34.2361 104.596 34.2361C105.105 34.2361 105.383 33.8667 105.428 33.128L105.434 32.964V32.8081L105.43 32.6359C105.394 31.8599 105.113 31.4717 104.586 31.4717ZM75.3947 31.4717C74.9181 31.4717 74.645 31.8021 74.5745 32.4647L74.5616 32.6235L74.5566 32.9045L74.5616 33.0941C74.5795 33.458 74.65 33.7307 74.7711 33.9135C74.9141 34.1282 75.1246 34.2361 75.4036 34.2361C75.914 34.2361 76.191 33.8667 76.2357 33.128L76.2417 32.964V32.8081L76.2377 32.6359C76.203 31.8599 75.9219 31.4717 75.3947 31.4717ZM59.671 31.4717C59.1944 31.4717 58.9214 31.8021 58.8509 32.4647L58.838 32.6235L58.834 32.9045L58.838 33.0941C58.8558 33.458 58.9253 33.7307 59.0465 33.9135C59.1905 34.1282 59.4 34.2361 59.68 34.2361C60.1904 34.2361 60.4674 33.8667 60.5121 33.128L60.518 32.964V32.8081L60.5141 32.6359C60.4783 31.8599 60.1973 31.4717 59.671 31.4717ZM94.1364 31.4717C93.6608 31.4717 93.3867 31.8021 93.3162 32.4647L93.3033 32.6235L93.2993 32.9045L93.3043 33.0941C93.3212 33.458 93.3907 33.7307 93.5138 33.9135C93.6558 34.1282 93.8653 34.2361 94.1463 34.2361C94.6567 34.2361 94.9337 33.8667 94.9784 33.128L94.9844 32.964V32.8081L94.9804 32.6359C94.9456 31.8599 94.6646 31.4717 94.1364 31.4717ZM99.4342 31.4717C99.1324 31.4717 98.9109 31.5742 98.7699 31.7777L98.7153 31.871V33.8421L98.769 33.9345C98.908 34.1356 99.1334 34.2361 99.4432 34.2361C99.8046 34.2361 100.034 34.0595 100.13 33.7042C100.18 33.5303 100.204 33.2282 100.204 32.7965C100.204 32.321 100.141 31.9802 100.016 31.7772C99.89 31.5742 99.6954 31.4717 99.4342 31.4717ZM88.7105 29.8925H87.7007V31.734H88.7105L88.8555 31.7273C89.0878 31.7049 89.2676 31.6264 89.3947 31.4921C89.5496 31.3308 89.625 31.107 89.625 30.8173C89.625 30.5281 89.5496 30.3022 89.3937 30.1382C89.2388 29.9743 89.0114 29.8925 88.7105 29.8925ZM111.622 28.3354C111.874 28.3354 112.078 28.4072 112.237 28.5477C112.394 28.6879 112.473 28.8689 112.473 29.0886C112.473 29.3096 112.394 29.4902 112.237 29.6307C112.078 29.7726 111.874 29.8415 111.622 29.8415C111.371 29.8415 111.166 29.7726 111.008 29.6307C110.85 29.4902 110.771 29.3096 110.771 29.0886C110.771 28.8689 110.85 28.6879 111.008 28.5477C111.166 28.4072 111.371 28.3354 111.622 28.3354ZM66.9843 28.3354C67.2355 28.3354 67.442 28.4072 67.5989 28.5477C67.7568 28.6879 67.8352 28.8689 67.8352 29.0886C67.8352 29.3096 67.7568 29.4902 67.5989 29.6307C67.442 29.7726 67.2355 29.8415 66.9843 29.8415C66.733 29.8415 66.5285 29.7726 66.3696 29.6307C66.2127 29.4902 66.1333 29.3096 66.1333 29.0886C66.1333 28.8689 66.2127 28.6879 66.3696 28.5477C66.5285 28.4072 66.733 28.3354 66.9843 28.3354ZM20.3119 9.21478H12.6354L12.5053 9.2265C12.2035 9.27978 11.9672 9.51766 11.9225 9.81643L11.9155 9.91819V28.5427L11.9264 28.6695C11.9811 28.9645 12.2253 29.1959 12.5312 29.2392L12.6354 29.2465H20.3119L20.7687 29.2366C21.6732 29.1986 22.5242 29.0474 23.3225 28.7823C24.2539 28.4727 25.0562 27.9896 25.7285 27.3332C26.3044 26.7703 26.7363 26.1702 27.0243 25.5323C27.3122 24.8949 27.5148 24.2289 27.63 23.535C27.7213 22.98 27.7769 22.4099 27.7958 21.8246L27.8027 21.3829V16.9379L27.7918 16.4006C27.77 15.8679 27.7163 15.3483 27.63 14.8418C27.5148 14.1664 27.3122 13.5195 27.0243 12.9005C26.7363 12.2815 26.3044 11.6906 25.7285 11.1281C25.0562 10.4717 24.2539 9.9886 23.3225 9.67931C22.3911 9.36962 21.3873 9.21478 20.3119 9.21478ZM115.806 13.4084C116.329 13.4084 116.821 13.4952 117.281 13.6684C117.741 13.8417 118.123 14.0811 118.426 14.3863C118.687 14.6637 118.893 14.9792 119.045 15.3331C119.196 15.6866 119.306 16.0646 119.375 16.4669C119.443 16.8692 119.485 17.2819 119.499 17.7048C119.513 18.1279 119.52 18.5405 119.52 18.9428C119.52 19.3448 119.513 19.7611 119.499 20.1912C119.485 20.6211 119.443 21.0371 119.375 21.4394C119.306 21.8418 119.196 22.223 119.045 22.5835C118.893 22.9445 118.687 23.2563 118.426 23.5197C118.123 23.8249 117.741 24.0643 117.281 24.2379C116.821 24.4111 116.329 24.498 115.806 24.498C115.257 24.498 114.775 24.4181 114.362 24.2586C114.009 24.1217 113.675 23.896 113.362 23.5808L113.207 23.4159V26.7862C113.207 27.0416 113.025 27.2543 112.784 27.2984L112.692 27.3067H111.042C110.789 27.3067 110.578 27.1224 110.534 26.88L110.526 26.7862V14.0534C110.526 13.798 110.708 13.5857 110.949 13.5416L111.042 13.5332H112.61C112.863 13.5332 113.073 13.7172 113.117 13.9599L113.125 14.0534V14.5528C113.496 14.1366 113.891 13.8417 114.311 13.6684C114.731 13.4952 115.229 13.4084 115.806 13.4084ZM19.9379 12.7037C20.629 12.7037 21.2148 12.8066 21.6954 13.0129C22.175 13.2192 22.5881 13.5289 22.9336 13.9411C23.1262 14.1664 23.2802 14.4196 23.3943 14.701C23.5095 14.9826 23.5959 15.3294 23.6545 15.742C23.7121 16.1547 23.7508 16.6376 23.7697 17.1907C23.7885 17.7442 23.7985 18.3961 23.7985 19.146C23.7985 20.6656 23.7449 21.8285 23.6396 22.6348C23.5344 23.4412 23.299 24.0696 22.9336 24.5197C22.5881 24.9324 22.175 25.242 21.6954 25.4484C21.2833 25.6251 20.7948 25.7261 20.2278 25.7513L19.9379 25.7576H15.9204V12.7037H19.9379ZM125.603 13.4084C126.346 13.4084 127.009 13.5402 127.594 13.8037C128.179 14.0675 128.67 14.428 129.069 14.8858C129.468 15.3431 129.77 15.8876 129.976 16.5186C130.153 17.0598 130.254 17.6441 130.279 18.2714L130.286 18.5889V19.7958H123.562C123.562 20.5033 123.764 21.0822 124.17 21.5329C124.575 21.984 125.156 22.209 125.913 22.209C126.505 22.209 126.971 22.1258 127.315 21.9593C127.59 21.8263 127.865 21.6357 128.14 21.3871L128.347 21.1897L129.976 22.7919C129.701 23.0693 129.426 23.3117 129.151 23.5197C128.876 23.7281 128.577 23.9046 128.254 24.0506C127.931 24.1961 127.577 24.3073 127.192 24.3834C126.807 24.4599 126.374 24.498 125.892 24.498C125.26 24.498 124.645 24.4144 124.046 24.2482C123.448 24.0816 122.919 23.7869 122.457 23.3638C121.998 22.9408 121.626 22.3722 121.344 21.6578C121.062 20.9434 120.921 20.0385 120.921 18.9428C120.921 18.0551 121.035 17.2678 121.262 16.581C121.488 15.8947 121.808 15.3154 122.221 14.844C122.633 14.3726 123.125 14.0154 123.696 13.7726C124.267 13.5299 124.902 13.4084 125.603 13.4084ZM87.734 13.4084C88.4767 13.4084 89.14 13.5402 89.7239 13.8037C90.3087 14.0675 90.8002 14.428 91.1994 14.8858C91.5976 15.3431 91.9004 15.8876 92.107 16.5186C92.2837 17.0598 92.384 17.6441 92.4098 18.2714L92.4158 18.5889V19.7958H85.6915C85.6915 20.5033 85.8951 21.0822 86.3002 21.5329C86.7063 21.984 87.2872 22.209 88.0428 22.209C88.6346 22.209 89.1023 22.1258 89.4459 21.9593C89.7209 21.8263 89.9959 21.6357 90.271 21.3871L90.4765 21.1897L92.107 22.7919C91.8319 23.0693 91.5569 23.3117 91.2818 23.5197C91.0068 23.7281 90.7079 23.9046 90.3842 24.0506C90.0615 24.1961 89.707 24.3073 89.3217 24.3834C88.9375 24.4599 88.5045 24.498 88.023 24.498C87.3904 24.498 86.7748 24.4144 86.1761 24.2482C85.5783 24.0816 85.0491 23.7869 84.5883 23.3638C84.1276 22.9408 83.7562 22.3722 83.4742 21.6578C83.1932 20.9434 83.0522 20.0385 83.0522 18.9428C83.0522 18.0551 83.1654 17.2678 83.3918 16.581C83.6192 15.8947 83.939 15.3154 84.351 14.844C84.7641 14.3726 85.2556 14.0154 85.8265 13.7726C86.3965 13.5299 87.033 13.4084 87.734 13.4084ZM104.028 13.4084C104.826 13.4084 105.5 13.5402 106.05 13.8037C106.6 14.0675 107.04 14.3793 107.37 14.7398C107.851 15.2529 108.174 15.8359 108.339 16.4876C108.504 17.1396 108.587 17.9579 108.587 18.9428C108.587 19.9273 108.504 20.7493 108.339 21.4081C108.174 22.0671 107.851 22.6531 107.37 23.1665C107.04 23.527 106.6 23.8389 106.05 24.1023C105.5 24.3661 104.826 24.498 104.028 24.498C103.231 24.498 102.56 24.3661 102.017 24.1023C101.474 23.8389 101.037 23.527 100.708 23.1665C100.226 22.6531 99.9033 22.0671 99.7385 21.4081C99.5726 20.7493 99.4902 19.9273 99.4902 18.9428C99.4902 17.9579 99.5726 17.1396 99.7385 16.4876C99.9033 15.8359 100.226 15.2529 100.708 14.7398C101.037 14.3793 101.474 14.0675 102.017 13.8037C102.56 13.5402 103.231 13.4084 104.028 13.4084ZM67.9122 13.4084C68.655 13.4084 69.3182 13.5402 69.9031 13.8037C70.4869 14.0675 70.9785 14.428 71.3776 14.8858C71.7768 15.3431 72.0796 15.8876 72.2852 16.5186C72.4619 17.0598 72.5632 17.6441 72.589 18.2714L72.595 18.5889V19.7958H65.8707C65.8707 20.5033 66.0733 21.0822 66.4794 21.5329C66.8845 21.984 67.4654 22.209 68.222 22.209C68.8128 22.209 69.2805 22.1258 69.6251 21.9593C69.9001 21.8263 70.1742 21.6357 70.4502 21.3871L70.6557 21.1897L72.2852 22.7919C72.0101 23.0693 71.7351 23.3117 71.46 23.5197C71.185 23.7281 70.8861 23.9046 70.5624 24.0506C70.2397 24.1961 69.8862 24.3073 69.5009 24.3834C69.1157 24.4599 68.6828 24.498 68.2012 24.498C67.5687 24.498 66.953 24.4144 66.3553 24.2482C65.7575 24.0816 65.2273 23.7869 64.7676 23.3638C64.3068 22.9408 63.9355 22.3722 63.6535 21.6578C63.3715 20.9434 63.2305 20.0385 63.2305 18.9428C63.2305 18.0551 63.3437 17.2678 63.5711 16.581C63.7974 15.8947 64.1172 15.3154 64.5302 14.844C64.9423 14.3726 65.4338 14.0154 66.0048 13.7726C66.5757 13.5299 67.2112 13.4084 67.9122 13.4084ZM137.464 13.4084C137.987 13.4084 138.447 13.4848 138.845 13.6374C139.178 13.7643 139.501 13.9686 139.815 14.2501L140.001 14.428L137.98 16.4876C137.773 16.2796 137.568 16.12 137.361 16.0091C137.155 15.8984 136.886 15.8426 136.557 15.8426C136.35 15.8426 136.144 15.8806 135.937 15.9571C135.732 16.0332 135.546 16.1548 135.381 16.3213C135.215 16.4876 135.081 16.6956 134.979 16.9453C134.897 17.1449 134.847 17.376 134.83 17.6377L134.824 17.84V24.3731H132.142V13.5332H134.761V14.5736C135.024 14.2544 135.394 13.9806 135.876 13.7516C136.357 13.5229 136.886 13.4084 137.464 13.4084ZM96.3351 9.55907C96.5883 9.55907 96.7988 9.74336 96.8425 9.98575L96.8504 10.0792V21.1063C96.8504 21.4255 96.9229 21.6678 97.0679 21.8345C97.191 21.977 97.3876 22.0585 97.6587 22.0792L97.7997 22.0839H98.8313V23.8523C98.8313 24.1081 98.6486 24.3204 98.4073 24.3641L98.315 24.3728H97.3042C96.7541 24.3728 96.2804 24.2824 95.8813 24.1021C95.4831 23.9218 95.1564 23.686 94.9022 23.395C94.647 23.1035 94.4614 22.7743 94.3452 22.4064C94.2509 22.1125 94.1953 21.8118 94.1764 21.5043L94.1694 21.2726V10.0792C94.1694 9.82379 94.3521 9.61146 94.5924 9.56769L94.6848 9.55907H96.3351ZM75.2736 13.5331C75.4652 13.5331 75.637 13.639 75.7264 13.8036L75.7631 13.8907L77.8334 20.2324L79.8829 13.8921C79.9424 13.7084 80.0963 13.5759 80.28 13.5418L80.3734 13.5331H82.0872C82.1468 13.5331 82.2074 13.5439 82.264 13.5649C82.5023 13.6527 82.6363 13.8987 82.5946 14.1418L82.5708 14.2322L79.0091 24.0317C78.9455 24.2074 78.7946 24.3326 78.6169 24.3647L78.5255 24.373H77.1413C76.9556 24.373 76.7878 24.2731 76.6965 24.1156L76.6578 24.0325L73.0772 14.2332C73.0563 14.1756 73.0454 14.1148 73.0454 14.0534C73.0454 13.798 73.2271 13.5856 73.4684 13.5415L73.5608 13.5331H75.2736ZM56.2989 9.55907C57.0694 9.55907 57.7873 9.67355 58.4546 9.90262C59.1219 10.1313 59.6958 10.4885 60.1774 10.9739C60.5894 11.39 60.8992 11.827 61.1048 12.2847C61.3113 12.7424 61.4563 13.2209 61.5387 13.7203C61.6003 14.0949 61.639 14.4792 61.6539 14.8731L61.6618 15.2704V18.5576C61.6618 19.1055 61.6211 19.636 61.5387 20.1491C61.4563 20.6622 61.3113 21.1547 61.1048 21.6262C60.8992 22.0979 60.5894 22.5416 60.1774 22.9579C59.6958 23.4433 59.1219 23.8006 58.4546 24.0296C57.8827 24.2256 57.274 24.3375 56.6266 24.3655L56.2989 24.3728H51.5139C51.2607 24.3728 51.0502 24.1885 51.0065 23.9461L50.9985 23.8523V10.0792C50.9985 9.82379 51.1802 9.61146 51.4215 9.56769L51.5139 9.55907H56.2989ZM104.028 15.8425C103.52 15.8425 103.108 16.002 102.791 16.3212C102.516 16.5987 102.344 16.9625 102.276 17.4132C102.206 17.8644 102.172 18.3738 102.172 18.9427C102.172 19.5113 102.206 20.0244 102.276 20.4821C102.344 20.9398 102.516 21.3074 102.791 21.5848C103.108 21.9037 103.52 22.0636 104.028 22.0636C104.551 22.0636 104.97 21.9037 105.286 21.5848C105.561 21.3074 105.733 20.9398 105.803 20.4821C105.871 20.0244 105.906 19.5113 105.906 18.9427C105.906 18.3738 105.871 17.8644 105.803 17.4132C105.733 16.9625 105.561 16.5987 105.286 16.3212C104.97 16.002 104.551 15.8425 104.028 15.8425ZM115.023 15.8425C114.624 15.8425 114.305 15.9223 114.063 16.0818C113.823 16.2414 113.64 16.4597 113.517 16.7372C113.393 17.0146 113.311 17.3405 113.269 17.7151C113.228 18.0897 113.208 18.4987 113.208 18.9427C113.208 19.3864 113.228 19.799 113.269 20.1806C113.311 20.5619 113.393 20.8914 113.517 21.1689C113.64 21.446 113.823 21.6647 114.063 21.8242C114.305 21.9839 114.624 22.0636 115.023 22.0636C115.422 22.0636 115.742 21.9839 115.982 21.8242C116.223 21.6647 116.405 21.446 116.528 21.1689C116.652 20.8914 116.734 20.5619 116.776 20.1806C116.817 19.799 116.838 19.3864 116.838 18.9427C116.838 18.4987 116.817 18.0897 116.776 17.7151C116.734 17.3405 116.652 17.0146 116.528 16.7372C116.405 16.4597 116.223 16.2414 115.982 16.0818C115.742 15.9223 115.422 15.8425 115.023 15.8425ZM56.0313 12.1393H53.8657V21.7929H56.0313L56.2726 21.7866C56.6648 21.7654 57.0034 21.6913 57.2894 21.5642C57.634 21.4116 57.9289 21.1826 58.1771 20.8775C58.4383 20.5446 58.6061 20.0799 58.6825 19.4836C58.758 18.8873 58.7957 18.0272 58.7957 16.9035C58.7957 16.349 58.7888 15.8668 58.7749 15.4576C58.761 15.0485 58.7342 14.6914 58.6925 14.3862C58.6507 14.081 58.5892 13.8246 58.5068 13.6163C58.4244 13.4083 58.3141 13.221 58.1771 13.0544C57.9289 12.7496 57.634 12.5205 57.2894 12.368C56.9459 12.2154 56.5268 12.1393 56.0313 12.1393ZM67.9116 15.6556C67.4578 15.6556 67.0835 15.7628 66.7876 15.9778C66.4927 16.1929 66.2683 16.4599 66.1174 16.7791C66.0349 16.9731 65.9764 17.157 65.9426 17.3303C65.9247 17.4169 65.9098 17.5115 65.8979 17.6138L65.882 17.773L65.8701 17.944H69.9541L69.9412 17.773C69.9273 17.6079 69.9075 17.4603 69.8816 17.3303C69.8469 17.157 69.7893 16.9731 69.7069 16.7791C69.555 16.4599 69.3315 16.1929 69.0366 15.9778C68.7407 15.7628 68.3654 15.6556 67.9116 15.6556ZM87.7339 15.6556C87.2801 15.6556 86.9048 15.7628 86.6099 15.9778C86.314 16.1929 86.0906 16.4599 85.9396 16.7791C85.8562 16.9731 85.7986 17.157 85.7639 17.3303C85.747 17.4169 85.7321 17.5115 85.7202 17.6138L85.7043 17.773L85.6914 17.944H89.7754L89.7635 17.773C89.7496 17.6079 89.7297 17.4603 89.7039 17.3303C89.6692 17.157 89.6106 16.9731 89.5282 16.7791C89.3772 16.4599 89.1538 16.1929 88.8579 15.9778C88.562 15.7628 88.1877 15.6556 87.7339 15.6556ZM125.603 15.6556C125.149 15.6556 124.775 15.7628 124.479 15.9778C124.184 16.1929 123.961 16.4599 123.809 16.7791C123.726 16.9731 123.668 17.157 123.634 17.3303C123.616 17.4169 123.602 17.5115 123.589 17.6138L123.573 17.773L123.562 17.944H127.646L127.633 17.773C127.619 17.6079 127.599 17.4603 127.573 17.3303C127.539 17.157 127.481 16.9731 127.398 16.7791C127.246 16.4599 127.023 16.1929 126.728 15.9778C126.432 15.7628 126.057 15.6556 125.603 15.6556ZM39.0883 0L34.5326 4.59798H5.12345L0.565807 0H39.0883Z" fill="#A456FF"/>
</g>
</svg>
